<?xml version="1.0" encoding="iso-8859-1"?>
<!-- Generator: Adobe Illustrator 19.0.0, SVG Export Plug-In . SVG Version: 6.00 Build 0)  -->
<svg xmlns="http://www.w3.org/2000/svg" xmlns:xlink="http://www.w3.org/1999/xlink" version="1.1" id="Layer_1" x="0px" y="0px" viewBox="0 0 512 512" style="enable-background:new 0 0 512 512;" xml:space="preserve" width="512px" height="512px">
<g>
	<g>
		<path d="M509.473,256.394l-59.391-67.801c-1.937-2.21-4.733-3.479-7.672-3.479h-49.455v-41.872    c0-5.633-4.567-10.199-10.199-10.199H172.109c-5.632,0-10.199,4.566-10.199,10.199v13.762H63.818    c-5.632,0-10.199,4.566-10.199,10.199c0,5.633,4.567,10.199,10.199,10.199h98.092v132.21h-59.046    c-5.632,0-10.199,4.566-10.199,10.199c0,5.633,4.567,10.199,10.199,10.199h59.046v10.365c0,5.633,4.567,10.199,10.199,10.199    h21.288c4.485,16.339,19.459,28.382,37.203,28.382c17.744,0,32.718-12.043,37.204-28.382h136.089v-0.001    c4.485,16.339,19.459,28.382,37.203,28.382c17.744,0,32.718-12.043,37.204-28.382h23.502c5.632,0,10.199-4.566,10.199-10.199    v-77.261C512,260.642,511.101,258.253,509.473,256.394z M230.6,358.558c-10.026,0-18.182-8.157-18.182-18.183    s8.156-18.183,18.182-18.183s18.183,8.157,18.183,18.183S240.626,358.558,230.6,358.558z M267.802,330.176    c-4.485-16.339-19.46-28.382-37.204-28.382s-32.717,12.043-37.203,28.382h-11.089V153.44h190.247v176.736H267.802z     M441.094,358.558c-10.026,0-18.182-8.157-18.182-18.183s8.156-18.183,18.182-18.183c10.026,0,18.183,8.157,18.183,18.183    S451.121,358.558,441.094,358.558z M491.602,330.176h-13.304c-4.485-16.339-19.46-28.382-37.204-28.382    c-17.744,0-32.717,12.043-37.203,28.382h-10.939V205.512h44.831l53.818,61.437V330.176z" fill="#343779"/>
	</g>
</g>
<g>
	<g>
		<path d="M69.261,309.611h-5.442c-5.632,0-10.199,4.566-10.199,10.199c0,5.633,4.567,10.199,10.199,10.199h5.442    c5.632,0,10.199-4.566,10.199-10.199C79.46,314.177,74.894,309.611,69.261,309.611z" fill="#343779"/>
	</g>
</g>
<g>
	<g>
		<path d="M119.5,232.276H10.199C4.567,232.276,0,236.842,0,242.475c0,5.633,4.567,10.199,10.199,10.199H119.5    c5.632,0,10.199-4.566,10.199-10.199C129.699,236.842,125.132,232.276,119.5,232.276z" fill="#343779"/>
	</g>
</g>
<g>
</g>
<g>
</g>
<g>
</g>
<g>
</g>
<g>
</g>
<g>
</g>
<g>
</g>
<g>
</g>
<g>
</g>
<g>
</g>
<g>
</g>
<g>
</g>
<g>
</g>
<g>
</g>
<g>
</g>
</svg>
